# xmcd CD database file
#
# Track frame offsets:
#	150
#	21744
#	43216
#	58224
#	79138
#	95882
#	101083
#	114755
#	131648
#	150323
#
# Disc length: 2272 seconds
#
# Revision: 0
# Processed by: cddbd v1.5.1PL0 Copyright (c) Steve Scherf et al.
# Submitted via: CDex 1.51
#
DISCID=8808de0a
DTITLE=STEP BY STEP - Big Skank
DYEAR=2003
DGENRE=Ska
TTITLE0=OLD SKANKIN'
TTITLE1=HOLD ON AND BE STRONG
TTITLE2=PEACE AT ANY PROCE
TTITLE3=COS THE JOURNEY
TTITLE4=BIRDIE
TTITLE5=INTERLUDE
TTITLE6=TOKYO MONOLITHIC
TTITLE7=NAME OF FREEDOM
TTITLE8=PRIVATE SENSATION
TTITLE9=DON'T WORRY BE HAPY
EXTD=YEAR: 2003
EXTT0=
EXTT1=
EXTT2=
EXTT3=
EXTT4=
EXTT5=
EXTT6=
EXTT7=
EXTT8=
EXTT9=
PLAYORDER=
